<svg width="16.000000" height="15.000000" viewBox="0 0 16 15" fill="none" xmlns="http://www.w3.org/2000/svg" xmlns:xlink="http://www.w3.org/1999/xlink">
<path id="" d="M0.86 2.93Q1.17 3.04 1.52 3.04Q1.7 3.04 1.87 3.01Q2.17 2.95 2.45 2.78Q2.67 2.65 2.85 2.47Q3.02 2.29 3.15 2.08Q3.32 1.79 3.38 1.49Q3.42 1.32 3.42 1.14Q3.42 0.79 3.3 0.49Q3.16 0.12 2.85 -0.19Q2.55 -0.5 2.17 -0.64Q1.87 -0.75 1.52 -0.75Q1.17 -0.75 0.86 -0.64Q0.49 -0.5 0.18 -0.19Q-0.13 0.12 -0.27 0.49Q-0.38 0.79 -0.38 1.14Q-0.38 1.49 -0.27 1.8Q-0.13 2.17 0.18 2.48Q0.49 2.79 0.86 2.93ZM12.1 15L15.37 15L15.37 9.23Q15.37 8.07 15.21 7.23Q15.08 6.5 14.76 5.87Q14.71 5.76 14.65 5.66Q14.51 5.41 14.31 5.19Q13.96 4.81 13.45 4.57Q12.66 4.2 11.47 4.2Q10.36 4.2 9.55 4.7Q9.54 4.71 9.53 4.71Q8.73 5.22 8.37 5.92L8.34 5.92L8.34 4.48L5.17 4.48L5.17 15L8.44 15L8.44 9.79Q8.44 8.56 8.85 7.82Q8.94 7.66 9.06 7.54Q9.5 7.08 10.41 7.08Q11.01 7.08 11.38 7.33Q11.48 7.4 11.56 7.48Q11.79 7.7 11.89 8.05Q12.03 8.53 12.07 8.9Q12.1 9.26 12.1 9.86L12.1 15ZM-0.13 15L3.14 15L3.14 4.48L-0.13 4.48L-0.13 15Z" fill="#292F36" fill-opacity="1.000000" fill-rule="evenodd"/>
</svg>