<svg width="18.000000" height="15.000000" viewBox="0 0 18 15" fill="none" xmlns="http://www.w3.org/2000/svg" xmlns:xlink="http://www.w3.org/1999/xlink">
<path id="" d="M15.67 4.05Q15.67 3.73 15.63 3.59Q16.12 3.23 16.54 2.81Q17.07 2.28 17.5 1.66Q16.44 2.11 15.39 2.25Q16.05 1.84 16.48 1.26Q16.82 0.79 17 0.21Q16.68 0.4 16.35 0.55Q15.54 0.92 14.65 1.09Q14.13 0.54 13.49 0.25Q12.79 -0.07 11.94 -0.07Q11.21 -0.07 10.59 0.18Q9.91 0.46 9.36 1.02Q8.8 1.59 8.53 2.27Q8.28 2.9 8.28 3.62Q8.28 4.05 8.35 4.47Q7.12 4.41 5.96 4.08Q5.01 3.8 4.12 3.34Q2.97 2.75 2.02 1.93Q1.34 1.33 0.76 0.6Q0.42 1.16 0.3 1.77Q0.23 2.11 0.23 2.46Q0.23 3.41 0.62 4.17Q1.03 4.98 1.89 5.56Q1.52 5.54 1.18 5.46Q0.69 5.33 0.23 5.07L0.23 5.14Q0.23 5.71 0.4 6.24Q0.49 6.51 0.62 6.77Q0.81 7.14 1.06 7.45Q1.33 7.78 1.67 8.05Q1.97 8.29 2.3 8.45Q2.71 8.66 3.19 8.76Q2.69 8.86 2.2 8.86Q1.89 8.86 1.53 8.83Q1.68 9.28 1.93 9.68Q2.28 10.22 2.82 10.64Q3.19 10.92 3.6 11.1Q4.24 11.36 4.98 11.36Q3.93 12.17 2.75 12.57Q1.62 12.94 0.37 12.94Q-0.12 12.94 -0.5 12.91Q0.67 13.66 1.95 14.07Q3.48 14.56 5.16 14.56Q7.52 14.56 9.5 13.68Q9.58 13.64 9.66 13.61Q11.69 12.66 12.98 11.13Q13.74 10.22 14.3 9.19Q14.68 8.5 14.96 7.75Q15.62 6.03 15.66 4.29Q15.67 4.17 15.67 4.05Z" fill="#292F36" fill-opacity="1.000000" fill-rule="evenodd"/>
</svg>